<svg xmlns="http://www.w3.org/2000/svg" viewBox="0 0 120 120">
  <rect width="120" height="120" rx="26" fill="#162DDB"/>
  <g transform="rotate(-6 60 58)">
    <path d="M32 16h38l16 16v54a6 6 0 01-6 6H32a6 6 0 01-6-6V22a6 6 0 016-6z" fill="white"/>
    <path d="M70 16v16h16" fill="none" stroke="#162DDB" stroke-width="3" stroke-linejoin="round"/>
    <line x1="37" y1="46" x2="60" y2="46" stroke="#162DDB" stroke-width="3" stroke-linecap="round"/>
    <line x1="37" y1="57" x2="54" y2="57" stroke="#162DDB" stroke-width="3" stroke-linecap="round"/>
    <line x1="37" y1="68" x2="50" y2="68" stroke="#162DDB" stroke-width="3" stroke-linecap="round"/>
  </g>
  <g transform="rotate(7 78 76)">
    <rect x="54" y="52" width="50" height="50" rx="9" fill="white" stroke="#162DDB" stroke-width="2.5"/>
    <path d="M60 92l11-14a3.5 3.5 0 015.4 0l7 8.5 4.5-5.5a3.5 3.5 0 015.4 0l6 7" fill="none" stroke="#162DDB" stroke-width="3.5" stroke-linecap="round" stroke-linejoin="round"/>
    <circle cx="71" cy="66" r="5" fill="#162DDB"/>
  </g>
</svg>